<?xml version="1.0" encoding="utf-8"?>
<!-- Generator: Adobe Illustrator 18.1.1, SVG Export Plug-In . SVG Version: 6.00 Build 0)  -->
<svg version="1.1" id="Capa_1" xmlns="http://www.w3.org/2000/svg" xmlns:xlink="http://www.w3.org/1999/xlink" x="0px" y="0px"
	 viewBox="-10 11.4 28.6 28.6" enable-background="new -10 11.4 28.6 28.6" xml:space="preserve">
<g>
	<path fill="#FFFFFF" d="M4.3,11.4c-6.9,0-12.5,5.6-12.5,12.5c0,4.7,2.6,8.8,6.5,11L-1.9,40L4,36.4c0.1,0,0.2,0,0.3,0
		c6.9,0,12.5-5.6,12.5-12.5S11.2,11.4,4.3,11.4z M5.9,31.2H2.7V20.9h3.2V31.2z M4.3,19.6c-1,0-1.7-0.7-1.7-1.6
		c0-0.9,0.7-1.6,1.7-1.6c1,0,1.7,0.7,1.7,1.6C6,18.9,5.3,19.6,4.3,19.6z"/>
</g>
</svg>
