<?xml version="1.0" encoding="utf-8"?>
<!-- Generator: Adobe Illustrator 18.1.1, SVG Export Plug-In . SVG Version: 6.00 Build 0)  -->
<svg version="1.1" id="Capa_1" xmlns="http://www.w3.org/2000/svg" xmlns:xlink="http://www.w3.org/1999/xlink" x="0px" y="0px"
	 viewBox="0 0 50 50" enable-background="new 0 0 50 50" xml:space="preserve">
<g>
	<g>
		<path fill="#FFFFFF" d="M41,23.8c-0.2-2.2-0.3-4.3-0.5-6.5c-0.2-2.6-2.4-4.7-5.1-4.6c-0.9,0-1.7,0.3-2.4,0.8
			c-1.2-0.3-2.4-0.4-3.6-0.1c-0.1,0-0.2,0.1-0.3,0.1c-1.6-4-8-3.9-9.2,0.3c-2.5,2.7-5.6,4.7-9.1,5.8c-3.5,1.1-2,6.6,1.5,5.5
			c2.8-0.9,5.4-2.2,7.7-3.9c0.3,2.8,0.7,5.6,1.3,8.4c-3.9,5.4-5.6,11.4-4.5,18.3c0.6,3.6,6.1,2.1,5.5-1.5c-0.7-4.8,0.6-9.2,3.3-13
			c0.1,0,0.2,0,0.2,0c1,4.7,2.2,9.5,3.5,14.1c1,3.5,6.5,2,5.5-1.5c-1.5-5.5-2.9-11-4.1-16.5c0.1-0.6,0.1-1.3-0.1-2.1
			c-0.1-0.4-0.2-0.7-0.2-1.1c0.4,0.2,0.8,0.3,1.2,0.5c0.1,0,0.2,0.1,0.4,0.1c0.9,1.3,2.5,2.2,4.2,2.1C39.1,28.8,41.3,26.4,41,23.8z
			 M30,22.5c-0.3-2-0.4-4-0.5-6c0.5-0.2,1-0.3,1.5-0.3c-0.2,0.5-0.2,1.1-0.2,1.7c0.1,1.9,0.3,3.7,0.4,5.6
			C30.8,23.2,30.4,22.9,30,22.5z"/>
		<circle fill="#FFFFFF" cx="22.2" cy="4.8" r="4.8"/>
	</g>
</g>
</svg>
